<svg class="diagram-root" style="background: #f5f6f6" xmlns="http://www.w3.org/2000/svg" xmlns:xlink="http://www.w3.org/1999/xlink"><style>.diagram-root { font-family: "Helvetica Neue", sans-serif; font-size: 12px; } .t { overflow: visible; } .t-bg { y: 40; fill: #fff;   } .th { fill: #005aa0;   } .tht { fill: #fff; font-size: 14px;  } .tf { fill: #323c46; overflow: visible; } .tf.pk { fill: #005aa0; font-weight: bold; } .tf.fk { font-weight: bold; } .ty { fill: #adb1b5; font-weight: normal; text-anchor: end; } .r { fill: transparent; stroke: #c3c3c3; stroke-width: 1; } .l { stroke: 1; } .i { fill: #c2c7ce; stroke: #c2c7ce; } .i.ix { fill: #afb3b6; stroke: #000; } .fa { fill: transparent; overflow: visible; } .fa .bg.hover { fill: #f7f7f7; } .c { cy: 12; r: 4; stroke: #d2d2dc; fill: #d2d2dc; } .hr { fill: transparent; stroke: #323c46; stroke-opacity: 0.035; stroke-width: 13; } .dc { stroke: #fa5a3c; fill: #fa5a3c; } .x { stroke: white; stroke-width: 1; } .hl .th { fill: #1b9bff; } .hl .tht {  } .fhl .bg { fill: #e7f4ff; } .fhls .bg {  } .r.hl { stroke: #1b9bff; } .dim { opacity: 0.25; }</style><g class="drawing-wrapper" transform="translate(-89.66444444444438, -78.88666666666666) scale(1,1)"><g class="rs"><path d="M 463.33666666666676 443.11 m -1, 0 a 1,1 0 1,0 2,0 a 1,1 0 1,0 -2,0 M 463.33666666666676 443.11 m -0.5, 0 a 0.5,0.5 0 1,0 1,0 a 0.5,0.5 0 1,0 -1,0  M463.33666666666676 443.11 L463.33666666666676 443.11 451.33666666666676 443.11 M 463.33666666666676 449.11 m -1, 0 a 1,1 0 1,0 2,0 a 1,1 0 1,0 -2,0 M 463.33666666666676 449.11 m -0.5, 0 a 0.5,0.5 0 1,0 1,0 a 0.5,0.5 0 1,0 -1,0  M463.33666666666676 449.11 L463.33666666666676 449.11 456.33666666666676 443.11 463.33666666666676 437.11 M 463.33666666666676 437.11 m -1, 0 a 1,1 0 1,0 2,0 a 1,1 0 1,0 -2,0 M 463.33666666666676 437.11 m -0.5, 0 a 0.5,0.5 0 1,0 1,0 a 0.5,0.5 0 1,0 -1,0  M451.33666666666676 443.11 Q 410.12 443.11, 368.91 494.5 T 286.48 545.89 M 274.48 545.89 m -1, 0 a 1,1 0 1,0 2,0 a 1,1 0 1,0 -2,0 M 274.48 545.89 m -0.5, 0 a 0.5,0.5 0 1,0 1,0 a 0.5,0.5 0 1,0 -1,0  M274.48 545.89 L274.48 545.89 286.48 545.89 M280.48 551.89 L280.48 551.89 280.48 539.89" id="h3716220850" class="r"></path><path d="M 233.7 309.22 m -1, 0 a 1,1 0 1,0 2,0 a 1,1 0 1,0 -2,0 M 233.7 309.22 m -0.5, 0 a 0.5,0.5 0 1,0 1,0 a 0.5,0.5 0 1,0 -1,0  M233.7 309.22 L233.7 309.22 245.7 309.22 M 233.7 315.22 m -1, 0 a 1,1 0 1,0 2,0 a 1,1 0 1,0 -2,0 M 233.7 315.22 m -0.5, 0 a 0.5,0.5 0 1,0 1,0 a 0.5,0.5 0 1,0 -1,0  M233.7 315.22 L233.7 315.22 240.7 309.22 233.7 303.22 M 233.7 303.22 m -1, 0 a 1,1 0 1,0 2,0 a 1,1 0 1,0 -2,0 M 233.7 303.22 m -0.5, 0 a 0.5,0.5 0 1,0 1,0 a 0.5,0.5 0 1,0 -1,0  M245.7 309.22 Q 297.11 309.22, 348.52 363.67 T 451.33666666666676 418.11 M 463.33666666666676 418.11 m -1, 0 a 1,1 0 1,0 2,0 a 1,1 0 1,0 -2,0 M 463.33666666666676 418.11 m -0.5, 0 a 0.5,0.5 0 1,0 1,0 a 0.5,0.5 0 1,0 -1,0  M463.33666666666676 418.11 L463.33666666666676 418.11 451.33666666666676 418.11 M457.33666666666676 424.11 L457.33666666666676 424.11 457.33666666666676 412.11" id="h3177548053" class="r"></path><path d="M 870.5 437.0011111111115 m -1, 0 a 1,1 0 1,0 2,0 a 1,1 0 1,0 -2,0 M 870.5 437.0011111111115 m -0.5, 0 a 0.5,0.5 0 1,0 1,0 a 0.5,0.5 0 1,0 -1,0  M870.5 437.0011111111115 L870.5 437.0011111111115 882.5 437.0011111111115 M 870.5 443.0011111111115 m -1, 0 a 1,1 0 1,0 2,0 a 1,1 0 1,0 -2,0 M 870.5 443.0011111111115 m -0.5, 0 a 0.5,0.5 0 1,0 1,0 a 0.5,0.5 0 1,0 -1,0  M870.5 443.0011111111115 L870.5 443.0011111111115 877.5 437.0011111111115 870.5 431.0011111111115 M 870.5 431.0011111111115 m -1, 0 a 1,1 0 1,0 2,0 a 1,1 0 1,0 -2,0 M 870.5 431.0011111111115 m -0.5, 0 a 0.5,0.5 0 1,0 1,0 a 0.5,0.5 0 1,0 -1,0  M882.5 437.0011111111115 C 932.5 437.0011111111115, 950.842 165.88666666666666, 851.93 165.88666666666666 M 839.93 165.88666666666666 m -1, 0 a 1,1 0 1,0 2,0 a 1,1 0 1,0 -2,0 M 839.93 165.88666666666666 m -0.5, 0 a 0.5,0.5 0 1,0 1,0 a 0.5,0.5 0 1,0 -1,0  M839.93 165.88666666666666 L839.93 165.88666666666666 851.93 165.88666666666666 M845.93 171.88666666666666 L845.93 171.88666666666666 845.93 159.88666666666666" id="h1153840808" class="r"></path><path d="M 741.1100000000012 462.0011111111115 m -1, 0 a 1,1 0 1,0 2,0 a 1,1 0 1,0 -2,0 M 741.1100000000012 462.0011111111115 m -0.5, 0 a 0.5,0.5 0 1,0 1,0 a 0.5,0.5 0 1,0 -1,0  M741.1100000000012 462.0011111111115 L741.1100000000012 462.0011111111115 729.1100000000012 462.0011111111115 M 741.1100000000012 468.0011111111115 m -1, 0 a 1,1 0 1,0 2,0 a 1,1 0 1,0 -2,0 M 741.1100000000012 468.0011111111115 m -0.5, 0 a 0.5,0.5 0 1,0 1,0 a 0.5,0.5 0 1,0 -1,0  M741.1100000000012 468.0011111111115 L741.1100000000012 468.0011111111115 734.1100000000012 462.0011111111115 741.1100000000012 456.0011111111115 M 741.1100000000012 456.0011111111115 m -1, 0 a 1,1 0 1,0 2,0 a 1,1 0 1,0 -2,0 M 741.1100000000012 456.0011111111115 m -0.5, 0 a 0.5,0.5 0 1,0 1,0 a 0.5,0.5 0 1,0 -1,0  M729.1100000000012 462.0011111111115 Q 703.35 462.0011111111115, 677.59 440.06 T 626.06 418.11 M 614.06 418.11 m -1, 0 a 1,1 0 1,0 2,0 a 1,1 0 1,0 -2,0 M 614.06 418.11 m -0.5, 0 a 0.5,0.5 0 1,0 1,0 a 0.5,0.5 0 1,0 -1,0  M614.06 418.11 L614.06 418.11 626.06 418.11 M620.06 424.11 L620.06 424.11 620.06 412.11" id="h1938069616" class="r"></path><path d="M 460.5444444444443 179.22888888888883 m -1, 0 a 1,1 0 1,0 2,0 a 1,1 0 1,0 -2,0 M 460.5444444444443 179.22888888888883 m -0.5, 0 a 0.5,0.5 0 1,0 1,0 a 0.5,0.5 0 1,0 -1,0  M460.5444444444443 179.22888888888883 L460.5444444444443 179.22888888888883 448.5444444444443 179.22888888888883 M 460.5444444444443 185.22888888888883 m -1, 0 a 1,1 0 1,0 2,0 a 1,1 0 1,0 -2,0 M 460.5444444444443 185.22888888888883 m -0.5, 0 a 0.5,0.5 0 1,0 1,0 a 0.5,0.5 0 1,0 -1,0  M460.5444444444443 185.22888888888883 L460.5444444444443 185.22888888888883 453.5444444444443 179.22888888888883 460.5444444444443 173.22888888888883 M 460.5444444444443 173.22888888888883 m -1, 0 a 1,1 0 1,0 2,0 a 1,1 0 1,0 -2,0 M 460.5444444444443 173.22888888888883 m -0.5, 0 a 0.5,0.5 0 1,0 1,0 a 0.5,0.5 0 1,0 -1,0  M448.5444444444443 179.22888888888883 C 398.5444444444443 179.22888888888883, 396.86911111111084 418.11, 451.33666666666676 418.11 M 463.33666666666676 418.11 m -1, 0 a 1,1 0 1,0 2,0 a 1,1 0 1,0 -2,0 M 463.33666666666676 418.11 m -0.5, 0 a 0.5,0.5 0 1,0 1,0 a 0.5,0.5 0 1,0 -1,0  M463.33666666666676 418.11 L463.33666666666676 418.11 451.33666666666676 418.11 M457.33666666666676 424.11 L457.33666666666676 424.11 457.33666666666676 412.11" id="h1139284389" class="r"></path><path d="M 589.93 204.22888888888883 m -1, 0 a 1,1 0 1,0 2,0 a 1,1 0 1,0 -2,0 M 589.93 204.22888888888883 m -0.5, 0 a 0.5,0.5 0 1,0 1,0 a 0.5,0.5 0 1,0 -1,0  M589.93 204.22888888888883 L589.93 204.22888888888883 601.93 204.22888888888883 M 589.93 210.22888888888883 m -1, 0 a 1,1 0 1,0 2,0 a 1,1 0 1,0 -2,0 M 589.93 210.22888888888883 m -0.5, 0 a 0.5,0.5 0 1,0 1,0 a 0.5,0.5 0 1,0 -1,0  M589.93 210.22888888888883 L589.93 210.22888888888883 596.93 204.22888888888883 589.93 198.22888888888883 M 589.93 198.22888888888883 m -1, 0 a 1,1 0 1,0 2,0 a 1,1 0 1,0 -2,0 M 589.93 198.22888888888883 m -0.5, 0 a 0.5,0.5 0 1,0 1,0 a 0.5,0.5 0 1,0 -1,0  M601.93 204.22888888888883 Q 621.09 204.22888888888883, 640.24 185.06 T 678.5433333333337 165.88666666666666 M 690.5433333333337 165.88666666666666 m -1, 0 a 1,1 0 1,0 2,0 a 1,1 0 1,0 -2,0 M 690.5433333333337 165.88666666666666 m -0.5, 0 a 0.5,0.5 0 1,0 1,0 a 0.5,0.5 0 1,0 -1,0  M690.5433333333337 165.88666666666666 L690.5433333333337 165.88666666666666 678.5433333333337 165.88666666666666 M684.5433333333337 171.88666666666666 L684.5433333333337 171.88666666666666 684.5433333333337 159.88666666666666" id="h1607168654" class="r"></path></g><g class="hrs"></g><g class="ts"><svg width="122.04" height="100" x="111.66" y="252.22" id="h2472833127" class="t"><rect height="40" width="122.04" class="th"></rect><text x="13" y="25" class="tht">salaries</text><rect height="60" width="122.04" class="t-bg" y="40"></rect><text x="13" y="61" class="tf pk">emp_no<tspan x="109.04" class="ty">int</tspan></text><path d="M7,14A2,2 0 0,1 5,12A2,2 0 0,1 7,10A2,2 0 0,1 9,12A2,2 0 0,1 7,14M12.65,10C11.83,7.67 9.61,6 7, 6A6, 6 0 0, 0 1, 12A6, 6 0 0, 0 7, 18C9.61, 18 11.83, 16.33 12.65, 14H17V18H21V14H23V10H12.65Z" class="i pk" transform="translate(76.366171875, 48) scale(0.65)"></path><text x="13" y="86" class="tf">salary<tspan x="109.04" class="ty">int</tspan></text></svg><svg width="146.7" height="100" x="127.78" y="488.89" id="h311790747" class="t"><rect height="40" width="146.7" class="th"></rect><text x="13" y="25" class="tht">titles</text><rect height="60" width="146.7" class="t-bg" y="40"></rect><text x="13" y="61" class="tf pk">titles_id<tspan x="133.7" class="ty">varchar</tspan></text><path d="M7,14A2,2 0 0,1 5,12A2,2 0 0,1 7,10A2,2 0 0,1 9,12A2,2 0 0,1 7,14M12.65,10C11.83,7.67 9.61,6 7, 6A6, 6 0 0, 0 1, 12A6, 6 0 0, 0 7, 18C9.61, 18 11.83, 16.33 12.65, 14H17V18H21V14H23V10H12.65Z" class="i pk" transform="translate(73.68632812499999, 48) scale(0.65)"></path><text x="13" y="86" class="tf">title<tspan x="133.7" class="ty">varchar</tspan></text></svg><svg width="129.39" height="100" x="741.1100000000012" y="380.0011111111115" id="h3142830945" class="t"><rect height="40" width="129.39" class="th"></rect><text x="13" y="25" class="tht">dept_managers</text><rect height="60" width="129.39" class="t-bg" y="40"></rect><text x="13" y="61" class="tf fk">dept_no<tspan x="116.38999999999999" class="ty">varchar</tspan></text><text x="13" y="86" class="tf fk">emp_no<tspan x="116.38999999999999" class="ty">int</tspan></text></svg><svg width="150.72" height="225" x="463.33666666666676" y="361.11" id="h1639608377" class="t"><rect height="40" width="150.72" class="th"></rect><text x="13" y="25" class="tht">employees</text><rect height="185" width="150.72" class="t-bg" y="40"></rect><text x="13" y="61" class="tf pk">emp_no<tspan x="137.72" class="ty">int</tspan></text><path d="M7,14A2,2 0 0,1 5,12A2,2 0 0,1 7,10A2,2 0 0,1 9,12A2,2 0 0,1 7,14M12.65,10C11.83,7.67 9.61,6 7, 6A6, 6 0 0, 0 1, 12A6, 6 0 0, 0 7, 18C9.61, 18 11.83, 16.33 12.65, 14H17V18H21V14H23V10H12.65Z" class="i pk" transform="translate(105.046171875, 48) scale(0.65)"></path><text x="13" y="86" class="tf fk">emp_title_id<tspan x="137.72" class="ty">varchar</tspan></text><text x="13" y="111" class="tf">birth_date<tspan x="137.72" class="ty">date</tspan></text><text x="13" y="136" class="tf">first_name<tspan x="137.72" class="ty">varchar</tspan></text><text x="13" y="161" class="tf">last_name<tspan x="137.72" class="ty">varchar</tspan></text><text x="13" y="186" class="tf">sex<tspan x="137.72" class="ty">varchar</tspan></text><text x="13" y="211" class="tf">hire_date<tspan x="137.72" class="ty">date</tspan></text></svg><svg width="149.39" height="100" x="690.5433333333337" y="108.88666666666666" id="h475896179" class="t"><rect height="40" width="149.39" class="th"></rect><text x="13" y="25" class="tht">departments</text><rect height="60" width="149.39" class="t-bg" y="40"></rect><text x="13" y="61" class="tf pk">dept_no<tspan x="136.39" class="ty">varchar</tspan></text><path d="M7,14A2,2 0 0,1 5,12A2,2 0 0,1 7,10A2,2 0 0,1 9,12A2,2 0 0,1 7,14M12.65,10C11.83,7.67 9.61,6 7, 6A6, 6 0 0, 0 1, 12A6, 6 0 0, 0 7, 18C9.61, 18 11.83, 16.33 12.65, 14H17V18H21V14H23V10H12.65Z" class="i pk" transform="translate(76.37632812499999, 48) scale(0.65)"></path><text x="13" y="86" class="tf">dept_name<tspan x="136.39" class="ty">varchar</tspan></text></svg><svg width="129.39" height="100" x="460.5444444444443" y="122.22888888888885" id="h1090417462" class="t"><rect height="40" width="129.39" class="th"></rect><text x="13" y="25" class="tht">dept_emp</text><rect height="60" width="129.39" class="t-bg" y="40"></rect><text x="13" y="61" class="tf fk">emp_no<tspan x="116.38999999999999" class="ty">int</tspan></text><text x="13" y="86" class="tf fk">dept_no<tspan x="116.38999999999999" class="ty">varchar</tspan></text></svg></g></g><text class="qdbd-link" x="10" y="20">www.quickdatabasediagrams.com</text></svg>